<svg width="211" height="42" xmlns="http://www.w3.org/2000/svg"><g fill="none" fill-rule="evenodd"><path d="M9 21.6c.3 0 .5-.2.6-.5l3-9.7h.2l3 9.7c.2.3.3.5.7.5H24c.3 0 .4-.2.3-.5L16.6.7a.7.7 0 00-.6-.5H9.5c-.4 0-.6.2-.7.5L1 21c0 .3 0 .5.4.5h7.5z" fill="#FFF" fill-rule="nonzero"/><path class="letter" d="M53.5 6.7c.3 0 .5-.2.6-.5l1-5.7c0-.3 0-.5-.4-.5H49c-.3 0-.5.2-.6.5l-1 5.7c0 .3.1.5.4.5h5.8zM43.8 6.7c.3 0 .5-.2.5-.5l1-5.7c.1-.3 0-.5-.3-.5h-5.9c-.2 0-.5.2-.5.5l-1 5.7c-.1.3 0 .5.3.5h5.9zM45.7 8.7c5.8 0 9.8 3 9.8 9.1 0 2.6-.6 6.2-1.9 8.9-2.4 4.9-6.6 6.7-11.8 6.7-5.8 0-9.9-3-9.9-9 0-2.7.6-6.3 2-9 2.3-4.8 6.5-6.7 11.8-6.7zm-1 7.5c-1 0-1.8.3-2.3 1.5-.6 1.2-1.3 5.1-1.3 6.3 0 1.3.5 2 1.7 2 1 0 1.7-.3 2.3-1.5.6-1.2 1.3-5.2 1.3-6.4 0-1.3-.5-2-1.8-2zM65 32.8c.3 0 .5-.2.6-.4l2-11.7c.4-2.2 1.2-3.4 2.9-3.4.8 0 1.7.4 2.6 1 .3.2.6.1.7-.2L78 9.7c.2-.3 0-.6-.3-.7-.4-.2-1-.3-2-.3-2.6 0-5 1-6.5 3.3l.3-2.2c0-.3 0-.5-.4-.5h-8.3c-.2 0-.4.2-.5.5l-4 22.6c0 .2.2.4.4.4h8.4zM86.3 32.8c.2 0 .4-.2.5-.4L89.5 16c0-.2.1-.3.3-.3h3c.2 0 .5-.2.5-.5l1-5.5c0-.3 0-.5-.3-.5h-3c-.2 0-.3 0-.3-.2v-.5c.3-1.3 1-1.7 2.5-1.7h1.3c.2 0 .5-.2.5-.5l1-5.7c0-.3-.1-.5-.4-.5h-3.5c-6.5 0-9.4 2.2-10.4 8.5l-.1.3c0 .2-.2.3-.4.3H80c-.2 0-.4.2-.5.5l-1 5.5c0 .3.1.5.4.5H80c.2 0 .3 0 .2.3l-2.8 16.3c0 .2.2.4.5.4h8.3zM105 33.1c.3 0 .6-.2.6-.5l1.2-6.6c0-.3-.1-.5-.4-.5h-.9c-1.3 0-1.7-.7-1.4-2.5l4-22.3c.1-.3 0-.5-.4-.5h-8.3c-.3 0-.5.2-.5.5l-4.3 23.5c-1 6.2.5 9 7.2 9h3.3zM136.4 8.7c5.7 0 9.7 3 9.7 8.4 0 1.3-.2 3.2-.6 6 0 .3-.3.5-.5.5h-13.4c-.2 0-.3.1-.3.3v.4c0 1.7 1.3 2.4 3.6 2.4a10 10 0 005.3-1.9c.3-.2.5-.1.7 0l2.8 4.1c.2.2.2.5 0 .8-2.9 2.4-6 3.7-11 3.7-3.4 0-6-1.5-7-3v-.1h-.1c-2.1 2-4.6 3.1-9.3 3.1-4.7 0-7.6-2-7.6-6.2 0-5.5 4.1-8.8 11.2-8.9h3.3c.3 0 .4 0 .4-.2l.2-.6c.3-1.2-.2-1.8-3.8-1.8a11 11 0 00-5 1.2c-.3.2-.5.1-.6-.1v-.1l-1.9-4.9c-.1-.3 0-.6.3-.8 2.4-1.4 6.1-2.3 9.9-2.3 3 0 5.4.9 7 1.9l.2.1c1.6-1.1 4.1-2 6.5-2zm-14 15H120c-1.7 0-2.6.7-2.6 2 0 .8.6 1.4 1.8 1.4 2 0 2.9-.6 3-1.9l.3-1.3c0-.2 0-.3-.3-.3zm13-8.7c-1.2 0-2.2.7-2.8 1.8l-.3 1.2c0 .2 0 .3.2.3h4.8c.1 0 .2 0 .3-.3l.1-.9c0-1.4-.8-2.1-2.2-2.1zM163.2.2c.5 0 .7.1.8.4l.8 1.4 4.5-1.3c.2 0 .4 0 .4.4l.5 3.7c0 .3-.1.6-.4.7l-2.8.8.4.7c2.7 5.1 3.7 8.8 3.7 12.3 0 2-.3 5-1.5 7.4-2.2 4.5-6.2 6.7-11.9 6.7-6.2 0-9.8-3.5-9.8-9 0-2.5.3-4.3 1.4-6.7A9.4 9.4 0 01158 12a5 5 0 013 .8h.2l-2.3-4.2-4.7 1.3c-.2 0-.4 0-.5-.3l-.4-3.8c0-.3 0-.5.4-.6l3-.9-1.9-3.6c-.1-.3 0-.5.3-.5zm-3.1 18.7c-.9 0-1.7.3-2.3 1.5a8.8 8.8 0 00-.8 3.6c0 1.3.6 2 1.8 2 .9 0 1.6-.3 2.3-1.5.5-1.2.8-2.6.8-3.6 0-1.3-.6-2-1.8-2zM185.6 7c.3 0 .5-.3.6-.6l1-5.7c0-.3-.1-.5-.4-.5h-8.4c-.3 0-.4.2-.5.5l-1 5.7c0 .3.1.5.4.5h8.3zM181 32.8c.4 0 .6-.2.6-.4l4-22.6c0-.3-.1-.5-.4-.5H177c-.3 0-.5.2-.6.5l-4 22.6c0 .2.2.4.4.4h8.4z" fill="#FFF" fill-rule="nonzero"/><path fill="#FFF" fill-rule="nonzero" d="M209 41.8l1.2-6.5H183l-1.1 6.5z"/><path d="M15.7.2L29 38.8H206" stroke="#FFF" stroke-dasharray="7"/></g></svg>